<mxfile host="65bd71144e">
    <diagram name="Page-1" id="dAxY3QrxFXGfL_ZzQG9W">
        <mxGraphModel dx="1017" dy="920" grid="1" gridSize="10" guides="1" tooltips="1" connect="1" arrows="1" fold="1" page="1" pageScale="1" pageWidth="950" pageHeight="680" math="1" shadow="0">
            <root>
                <mxCell id="0"/>
                <mxCell id="1" parent="0"/>
                <mxCell id="o_4lC3tYzleQxMTvq1z8-74" value="" style="rounded=1;whiteSpace=wrap;html=1;rotation=-90;fillColor=#fff2cc;strokeColor=#d6b656;opacity=50;" parent="1" vertex="1">
                    <mxGeometry x="381.25" y="137.5" width="670" height="395" as="geometry"/>
                </mxCell>
                <mxCell id="o_4lC3tYzleQxMTvq1z8-71" value="" style="rounded=1;whiteSpace=wrap;html=1;rotation=-90;fillColor=#fff2cc;strokeColor=#d6b656;opacity=50;" parent="1" vertex="1">
                    <mxGeometry x="-30" y="136.25" width="667.5" height="395" as="geometry"/>
                </mxCell>
                <mxCell id="o_4lC3tYzleQxMTvq1z8-68" value="" style="rounded=1;whiteSpace=wrap;html=1;fillColor=#dae8fc;strokeColor=#6c8ebf;opacity=50;" parent="1" vertex="1">
                    <mxGeometry x="6.25" y="360" width="940" height="260" as="geometry"/>
                </mxCell>
                <mxCell id="o_4lC3tYzleQxMTvq1z8-66" value="" style="rounded=1;whiteSpace=wrap;html=1;fillColor=#DAE8FC;gradientDirection=radial;strokeColor=#6c8ebf;fillStyle=auto;shadow=0;glass=0;opacity=50;" parent="1" vertex="1">
                    <mxGeometry x="6.25" y="80" width="940" height="260" as="geometry"/>
                </mxCell>
                <mxCell id="o_4lC3tYzleQxMTvq1z8-14" value="" style="shape=table;startSize=0;container=1;collapsible=0;childLayout=tableLayout;fontSize=16;points=[[0,0,0,0,0],[0,0.25,0,0,0],[0,0.5,0,0,0],[0,0.75,0,0,0],[0,1,0,0,0],[0.25,0,0,0,0],[0.25,1,0,0,0],[0.5,0,0,0,0],[0.5,1,0,0,0],[0.75,0,0,0,0],[0.75,1,0,0,0],[1,0,0,0,0],[1,0.25,0,0,0],[1,0.5,0,0,0],[1,0.75,0,0,0],[1,1,0,0,0]];fillColor=none;gradientColor=none;perimeterSpacing=1;rounded=1;swimlaneHead=0;swimlaneBody=0;top=0;bottom=0;left=0;right=0;swimlaneFillColor=none;" parent="1" vertex="1">
                    <mxGeometry x="136.25" y="100" width="330" height="220" as="geometry"/>
                </mxCell>
                <mxCell id="o_4lC3tYzleQxMTvq1z8-15" value="" style="shape=tableRow;horizontal=0;startSize=0;swimlaneHead=0;swimlaneBody=0;strokeColor=inherit;top=0;left=0;bottom=0;right=0;collapsible=0;dropTarget=0;fillColor=none;points=[[0,0.5],[1,0.5]];portConstraint=eastwest;fontSize=16;" parent="o_4lC3tYzleQxMTvq1z8-14" vertex="1">
                    <mxGeometry width="330" height="74" as="geometry"/>
                </mxCell>
                <mxCell id="o_4lC3tYzleQxMTvq1z8-16" value="" style="shape=partialRectangle;html=1;whiteSpace=wrap;connectable=0;strokeColor=inherit;overflow=hidden;fillColor=none;top=0;left=0;bottom=0;right=0;pointerEvents=1;fontSize=16;" parent="o_4lC3tYzleQxMTvq1z8-15" vertex="1">
                    <mxGeometry width="110" height="74" as="geometry">
                        <mxRectangle width="110" height="74" as="alternateBounds"/>
                    </mxGeometry>
                </mxCell>
                <mxCell id="o_4lC3tYzleQxMTvq1z8-17" value="$$\text{Disease}$$" style="shape=partialRectangle;html=1;whiteSpace=wrap;connectable=0;strokeColor=inherit;overflow=hidden;fillColor=none;top=0;left=0;bottom=0;right=0;pointerEvents=1;fontSize=16;" parent="o_4lC3tYzleQxMTvq1z8-15" vertex="1">
                    <mxGeometry x="110" width="110" height="74" as="geometry">
                        <mxRectangle width="110" height="74" as="alternateBounds"/>
                    </mxGeometry>
                </mxCell>
                <mxCell id="o_4lC3tYzleQxMTvq1z8-18" value="$$\text{No Disease}$$" style="shape=partialRectangle;html=1;whiteSpace=wrap;connectable=0;strokeColor=inherit;overflow=hidden;fillColor=none;top=0;left=0;bottom=0;right=0;pointerEvents=1;fontSize=16;" parent="o_4lC3tYzleQxMTvq1z8-15" vertex="1">
                    <mxGeometry x="220" width="110" height="74" as="geometry">
                        <mxRectangle width="110" height="74" as="alternateBounds"/>
                    </mxGeometry>
                </mxCell>
                <mxCell id="o_4lC3tYzleQxMTvq1z8-19" value="" style="shape=tableRow;horizontal=0;startSize=0;swimlaneHead=0;swimlaneBody=0;strokeColor=inherit;top=0;left=0;bottom=0;right=0;collapsible=0;dropTarget=0;fillColor=none;points=[[0,0.5],[1,0.5]];portConstraint=eastwest;fontSize=16;" parent="o_4lC3tYzleQxMTvq1z8-14" vertex="1">
                    <mxGeometry y="74" width="330" height="72" as="geometry"/>
                </mxCell>
                <mxCell id="o_4lC3tYzleQxMTvq1z8-20" value="$$\text{Obesity}$$" style="shape=partialRectangle;html=1;whiteSpace=wrap;connectable=0;strokeColor=inherit;overflow=hidden;fillColor=none;top=0;left=0;bottom=0;right=0;pointerEvents=1;fontSize=16;" parent="o_4lC3tYzleQxMTvq1z8-19" vertex="1">
                    <mxGeometry width="110" height="72" as="geometry">
                        <mxRectangle width="110" height="72" as="alternateBounds"/>
                    </mxGeometry>
                </mxCell>
                <mxCell id="o_4lC3tYzleQxMTvq1z8-21" value="$$n_{0000}$$" style="shape=partialRectangle;html=1;whiteSpace=wrap;connectable=0;strokeColor=inherit;overflow=hidden;fillColor=none;top=0;left=0;bottom=0;right=0;pointerEvents=1;fontSize=16;" parent="o_4lC3tYzleQxMTvq1z8-19" vertex="1">
                    <mxGeometry x="110" width="110" height="72" as="geometry">
                        <mxRectangle width="110" height="72" as="alternateBounds"/>
                    </mxGeometry>
                </mxCell>
                <mxCell id="o_4lC3tYzleQxMTvq1z8-22" value="$$n_{0001}$$" style="shape=partialRectangle;html=1;whiteSpace=wrap;connectable=0;strokeColor=inherit;overflow=hidden;fillColor=none;top=0;left=0;bottom=0;right=0;pointerEvents=1;fontSize=16;" parent="o_4lC3tYzleQxMTvq1z8-19" vertex="1">
                    <mxGeometry x="220" width="110" height="72" as="geometry">
                        <mxRectangle width="110" height="72" as="alternateBounds"/>
                    </mxGeometry>
                </mxCell>
                <mxCell id="o_4lC3tYzleQxMTvq1z8-23" value="" style="shape=tableRow;horizontal=0;startSize=0;swimlaneHead=0;swimlaneBody=0;strokeColor=inherit;top=0;left=0;bottom=0;right=0;collapsible=0;dropTarget=0;fillColor=none;points=[[0,0.5],[1,0.5]];portConstraint=eastwest;fontSize=16;" parent="o_4lC3tYzleQxMTvq1z8-14" vertex="1">
                    <mxGeometry y="146" width="330" height="74" as="geometry"/>
                </mxCell>
                <mxCell id="o_4lC3tYzleQxMTvq1z8-24" value="$$\text{No Obesity}$$" style="shape=partialRectangle;html=1;whiteSpace=wrap;connectable=0;strokeColor=inherit;overflow=hidden;fillColor=none;top=0;left=0;bottom=0;right=0;pointerEvents=1;fontSize=16;" parent="o_4lC3tYzleQxMTvq1z8-23" vertex="1">
                    <mxGeometry width="110" height="74" as="geometry">
                        <mxRectangle width="110" height="74" as="alternateBounds"/>
                    </mxGeometry>
                </mxCell>
                <mxCell id="o_4lC3tYzleQxMTvq1z8-25" value="$$n_{0010}$$" style="shape=partialRectangle;html=1;whiteSpace=wrap;connectable=0;strokeColor=inherit;overflow=hidden;fillColor=none;top=0;left=0;bottom=0;right=0;pointerEvents=1;fontSize=16;" parent="o_4lC3tYzleQxMTvq1z8-23" vertex="1">
                    <mxGeometry x="110" width="110" height="74" as="geometry">
                        <mxRectangle width="110" height="74" as="alternateBounds"/>
                    </mxGeometry>
                </mxCell>
                <mxCell id="o_4lC3tYzleQxMTvq1z8-26" value="$$n_{0011}$$" style="shape=partialRectangle;html=1;whiteSpace=wrap;connectable=0;strokeColor=inherit;overflow=hidden;fillColor=none;top=0;left=0;bottom=0;right=0;pointerEvents=1;fontSize=16;" parent="o_4lC3tYzleQxMTvq1z8-23" vertex="1">
                    <mxGeometry x="220" width="110" height="74" as="geometry">
                        <mxRectangle width="110" height="74" as="alternateBounds"/>
                    </mxGeometry>
                </mxCell>
                <mxCell id="o_4lC3tYzleQxMTvq1z8-27" value="" style="shape=table;startSize=0;container=1;collapsible=0;childLayout=tableLayout;fontSize=16;points=[[0,0,0,0,0],[0,0.25,0,0,0],[0,0.5,0,0,0],[0,0.75,0,0,0],[0,1,0,0,0],[0.25,0,0,0,0],[0.25,1,0,0,0],[0.5,0,0,0,0],[0.5,1,0,0,0],[0.75,0,0,0,0],[0.75,1,0,0,0],[1,0,0,0,0],[1,0.25,0,0,0],[1,0.5,0,0,0],[1,0.75,0,0,0],[1,1,0,0,0]];fillColor=none;gradientColor=none;perimeterSpacing=1;rounded=1;swimlaneHead=0;swimlaneBody=0;top=0;bottom=0;left=0;right=0;swimlaneFillColor=none;" parent="1" vertex="1">
                    <mxGeometry x="136.25" y="380" width="330" height="220" as="geometry"/>
                </mxCell>
                <mxCell id="o_4lC3tYzleQxMTvq1z8-28" value="" style="shape=tableRow;horizontal=0;startSize=0;swimlaneHead=0;swimlaneBody=0;strokeColor=inherit;top=0;left=0;bottom=0;right=0;collapsible=0;dropTarget=0;fillColor=none;points=[[0,0.5],[1,0.5]];portConstraint=eastwest;fontSize=16;" parent="o_4lC3tYzleQxMTvq1z8-27" vertex="1">
                    <mxGeometry width="330" height="74" as="geometry"/>
                </mxCell>
                <mxCell id="o_4lC3tYzleQxMTvq1z8-29" value="" style="shape=partialRectangle;html=1;whiteSpace=wrap;connectable=0;strokeColor=inherit;overflow=hidden;fillColor=none;top=0;left=0;bottom=0;right=0;pointerEvents=1;fontSize=16;" parent="o_4lC3tYzleQxMTvq1z8-28" vertex="1">
                    <mxGeometry width="110" height="74" as="geometry">
                        <mxRectangle width="110" height="74" as="alternateBounds"/>
                    </mxGeometry>
                </mxCell>
                <mxCell id="o_4lC3tYzleQxMTvq1z8-30" value="$$\text{Disease}$$" style="shape=partialRectangle;html=1;whiteSpace=wrap;connectable=0;strokeColor=inherit;overflow=hidden;fillColor=none;top=0;left=0;bottom=0;right=0;pointerEvents=1;fontSize=16;" parent="o_4lC3tYzleQxMTvq1z8-28" vertex="1">
                    <mxGeometry x="110" width="110" height="74" as="geometry">
                        <mxRectangle width="110" height="74" as="alternateBounds"/>
                    </mxGeometry>
                </mxCell>
                <mxCell id="o_4lC3tYzleQxMTvq1z8-31" value="$$\text{No Disease}$$" style="shape=partialRectangle;html=1;whiteSpace=wrap;connectable=0;strokeColor=inherit;overflow=hidden;fillColor=none;top=0;left=0;bottom=0;right=0;pointerEvents=1;fontSize=16;" parent="o_4lC3tYzleQxMTvq1z8-28" vertex="1">
                    <mxGeometry x="220" width="110" height="74" as="geometry">
                        <mxRectangle width="110" height="74" as="alternateBounds"/>
                    </mxGeometry>
                </mxCell>
                <mxCell id="o_4lC3tYzleQxMTvq1z8-32" value="" style="shape=tableRow;horizontal=0;startSize=0;swimlaneHead=0;swimlaneBody=0;strokeColor=inherit;top=0;left=0;bottom=0;right=0;collapsible=0;dropTarget=0;fillColor=none;points=[[0,0.5],[1,0.5]];portConstraint=eastwest;fontSize=16;" parent="o_4lC3tYzleQxMTvq1z8-27" vertex="1">
                    <mxGeometry y="74" width="330" height="72" as="geometry"/>
                </mxCell>
                <mxCell id="o_4lC3tYzleQxMTvq1z8-33" value="$$\text{Obesity}$$" style="shape=partialRectangle;html=1;whiteSpace=wrap;connectable=0;strokeColor=inherit;overflow=hidden;fillColor=none;top=0;left=0;bottom=0;right=0;pointerEvents=1;fontSize=16;" parent="o_4lC3tYzleQxMTvq1z8-32" vertex="1">
                    <mxGeometry width="110" height="72" as="geometry">
                        <mxRectangle width="110" height="72" as="alternateBounds"/>
                    </mxGeometry>
                </mxCell>
                <mxCell id="o_4lC3tYzleQxMTvq1z8-34" value="$$n_{1000}$$" style="shape=partialRectangle;html=1;whiteSpace=wrap;connectable=0;strokeColor=inherit;overflow=hidden;fillColor=none;top=0;left=0;bottom=0;right=0;pointerEvents=1;fontSize=16;" parent="o_4lC3tYzleQxMTvq1z8-32" vertex="1">
                    <mxGeometry x="110" width="110" height="72" as="geometry">
                        <mxRectangle width="110" height="72" as="alternateBounds"/>
                    </mxGeometry>
                </mxCell>
                <mxCell id="o_4lC3tYzleQxMTvq1z8-35" value="$$n_{1001}$$" style="shape=partialRectangle;html=1;whiteSpace=wrap;connectable=0;strokeColor=inherit;overflow=hidden;fillColor=none;top=0;left=0;bottom=0;right=0;pointerEvents=1;fontSize=16;" parent="o_4lC3tYzleQxMTvq1z8-32" vertex="1">
                    <mxGeometry x="220" width="110" height="72" as="geometry">
                        <mxRectangle width="110" height="72" as="alternateBounds"/>
                    </mxGeometry>
                </mxCell>
                <mxCell id="o_4lC3tYzleQxMTvq1z8-36" value="" style="shape=tableRow;horizontal=0;startSize=0;swimlaneHead=0;swimlaneBody=0;strokeColor=inherit;top=0;left=0;bottom=0;right=0;collapsible=0;dropTarget=0;fillColor=none;points=[[0,0.5],[1,0.5]];portConstraint=eastwest;fontSize=16;" parent="o_4lC3tYzleQxMTvq1z8-27" vertex="1">
                    <mxGeometry y="146" width="330" height="74" as="geometry"/>
                </mxCell>
                <mxCell id="o_4lC3tYzleQxMTvq1z8-37" value="$$\text{No Obesity}$$" style="shape=partialRectangle;html=1;whiteSpace=wrap;connectable=0;strokeColor=inherit;overflow=hidden;fillColor=none;top=0;left=0;bottom=0;right=0;pointerEvents=1;fontSize=16;" parent="o_4lC3tYzleQxMTvq1z8-36" vertex="1">
                    <mxGeometry width="110" height="74" as="geometry">
                        <mxRectangle width="110" height="74" as="alternateBounds"/>
                    </mxGeometry>
                </mxCell>
                <mxCell id="o_4lC3tYzleQxMTvq1z8-38" value="$$n_{1010}$$" style="shape=partialRectangle;html=1;whiteSpace=wrap;connectable=0;strokeColor=inherit;overflow=hidden;fillColor=none;top=0;left=0;bottom=0;right=0;pointerEvents=1;fontSize=16;" parent="o_4lC3tYzleQxMTvq1z8-36" vertex="1">
                    <mxGeometry x="110" width="110" height="74" as="geometry">
                        <mxRectangle width="110" height="74" as="alternateBounds"/>
                    </mxGeometry>
                </mxCell>
                <mxCell id="o_4lC3tYzleQxMTvq1z8-39" value="$$n_{1011}$$" style="shape=partialRectangle;html=1;whiteSpace=wrap;connectable=0;strokeColor=inherit;overflow=hidden;fillColor=none;top=0;left=0;bottom=0;right=0;pointerEvents=1;fontSize=16;" parent="o_4lC3tYzleQxMTvq1z8-36" vertex="1">
                    <mxGeometry x="220" width="110" height="74" as="geometry">
                        <mxRectangle width="110" height="74" as="alternateBounds"/>
                    </mxGeometry>
                </mxCell>
                <mxCell id="o_4lC3tYzleQxMTvq1z8-40" value="" style="shape=table;startSize=0;container=1;collapsible=0;childLayout=tableLayout;fontSize=16;points=[[0,0,0,0,0],[0,0.25,0,0,0],[0,0.5,0,0,0],[0,0.75,0,0,0],[0,1,0,0,0],[0.25,0,0,0,0],[0.25,1,0,0,0],[0.5,0,0,0,0],[0.5,1,0,0,0],[0.75,0,0,0,0],[0.75,1,0,0,0],[1,0,0,0,0],[1,0.25,0,0,0],[1,0.5,0,0,0],[1,0.75,0,0,0],[1,1,0,0,0]];fillColor=none;gradientColor=none;perimeterSpacing=1;rounded=1;swimlaneHead=0;swimlaneBody=0;top=0;bottom=0;left=0;right=0;swimlaneFillColor=none;" parent="1" vertex="1">
                    <mxGeometry x="546.25" y="100" width="330" height="220" as="geometry"/>
                </mxCell>
                <mxCell id="o_4lC3tYzleQxMTvq1z8-41" value="" style="shape=tableRow;horizontal=0;startSize=0;swimlaneHead=0;swimlaneBody=0;strokeColor=inherit;top=0;left=0;bottom=0;right=0;collapsible=0;dropTarget=0;fillColor=none;points=[[0,0.5],[1,0.5]];portConstraint=eastwest;fontSize=16;" parent="o_4lC3tYzleQxMTvq1z8-40" vertex="1">
                    <mxGeometry width="330" height="74" as="geometry"/>
                </mxCell>
                <mxCell id="o_4lC3tYzleQxMTvq1z8-42" value="" style="shape=partialRectangle;html=1;whiteSpace=wrap;connectable=0;strokeColor=inherit;overflow=hidden;fillColor=none;top=0;left=0;bottom=0;right=0;pointerEvents=1;fontSize=16;" parent="o_4lC3tYzleQxMTvq1z8-41" vertex="1">
                    <mxGeometry width="110" height="74" as="geometry">
                        <mxRectangle width="110" height="74" as="alternateBounds"/>
                    </mxGeometry>
                </mxCell>
                <mxCell id="o_4lC3tYzleQxMTvq1z8-43" value="$$\text{Disease}$$" style="shape=partialRectangle;html=1;whiteSpace=wrap;connectable=0;strokeColor=inherit;overflow=hidden;fillColor=none;top=0;left=0;bottom=0;right=0;pointerEvents=1;fontSize=16;" parent="o_4lC3tYzleQxMTvq1z8-41" vertex="1">
                    <mxGeometry x="110" width="110" height="74" as="geometry">
                        <mxRectangle width="110" height="74" as="alternateBounds"/>
                    </mxGeometry>
                </mxCell>
                <mxCell id="o_4lC3tYzleQxMTvq1z8-44" value="$$\text{No Disease}$$" style="shape=partialRectangle;html=1;whiteSpace=wrap;connectable=0;strokeColor=inherit;overflow=hidden;fillColor=none;top=0;left=0;bottom=0;right=0;pointerEvents=1;fontSize=16;" parent="o_4lC3tYzleQxMTvq1z8-41" vertex="1">
                    <mxGeometry x="220" width="110" height="74" as="geometry">
                        <mxRectangle width="110" height="74" as="alternateBounds"/>
                    </mxGeometry>
                </mxCell>
                <mxCell id="o_4lC3tYzleQxMTvq1z8-45" value="" style="shape=tableRow;horizontal=0;startSize=0;swimlaneHead=0;swimlaneBody=0;strokeColor=inherit;top=0;left=0;bottom=0;right=0;collapsible=0;dropTarget=0;fillColor=none;points=[[0,0.5],[1,0.5]];portConstraint=eastwest;fontSize=16;" parent="o_4lC3tYzleQxMTvq1z8-40" vertex="1">
                    <mxGeometry y="74" width="330" height="72" as="geometry"/>
                </mxCell>
                <mxCell id="o_4lC3tYzleQxMTvq1z8-46" value="$$\text{Obesity}$$" style="shape=partialRectangle;html=1;whiteSpace=wrap;connectable=0;strokeColor=inherit;overflow=hidden;fillColor=none;top=0;left=0;bottom=0;right=0;pointerEvents=1;fontSize=16;" parent="o_4lC3tYzleQxMTvq1z8-45" vertex="1">
                    <mxGeometry width="110" height="72" as="geometry">
                        <mxRectangle width="110" height="72" as="alternateBounds"/>
                    </mxGeometry>
                </mxCell>
                <mxCell id="o_4lC3tYzleQxMTvq1z8-47" value="$$n_{0100}$$" style="shape=partialRectangle;html=1;whiteSpace=wrap;connectable=0;strokeColor=inherit;overflow=hidden;fillColor=none;top=0;left=0;bottom=0;right=0;pointerEvents=1;fontSize=16;" parent="o_4lC3tYzleQxMTvq1z8-45" vertex="1">
                    <mxGeometry x="110" width="110" height="72" as="geometry">
                        <mxRectangle width="110" height="72" as="alternateBounds"/>
                    </mxGeometry>
                </mxCell>
                <mxCell id="o_4lC3tYzleQxMTvq1z8-48" value="$$n_{0101}$$" style="shape=partialRectangle;html=1;whiteSpace=wrap;connectable=0;strokeColor=inherit;overflow=hidden;fillColor=none;top=0;left=0;bottom=0;right=0;pointerEvents=1;fontSize=16;" parent="o_4lC3tYzleQxMTvq1z8-45" vertex="1">
                    <mxGeometry x="220" width="110" height="72" as="geometry">
                        <mxRectangle width="110" height="72" as="alternateBounds"/>
                    </mxGeometry>
                </mxCell>
                <mxCell id="o_4lC3tYzleQxMTvq1z8-49" value="" style="shape=tableRow;horizontal=0;startSize=0;swimlaneHead=0;swimlaneBody=0;strokeColor=inherit;top=0;left=0;bottom=0;right=0;collapsible=0;dropTarget=0;fillColor=none;points=[[0,0.5],[1,0.5]];portConstraint=eastwest;fontSize=16;" parent="o_4lC3tYzleQxMTvq1z8-40" vertex="1">
                    <mxGeometry y="146" width="330" height="74" as="geometry"/>
                </mxCell>
                <mxCell id="o_4lC3tYzleQxMTvq1z8-50" value="$$\text{No Obesity}$$" style="shape=partialRectangle;html=1;whiteSpace=wrap;connectable=0;strokeColor=inherit;overflow=hidden;fillColor=none;top=0;left=0;bottom=0;right=0;pointerEvents=1;fontSize=16;" parent="o_4lC3tYzleQxMTvq1z8-49" vertex="1">
                    <mxGeometry width="110" height="74" as="geometry">
                        <mxRectangle width="110" height="74" as="alternateBounds"/>
                    </mxGeometry>
                </mxCell>
                <mxCell id="o_4lC3tYzleQxMTvq1z8-51" value="$$n_{0110}$$" style="shape=partialRectangle;html=1;whiteSpace=wrap;connectable=0;strokeColor=inherit;overflow=hidden;fillColor=none;top=0;left=0;bottom=0;right=0;pointerEvents=1;fontSize=16;" parent="o_4lC3tYzleQxMTvq1z8-49" vertex="1">
                    <mxGeometry x="110" width="110" height="74" as="geometry">
                        <mxRectangle width="110" height="74" as="alternateBounds"/>
                    </mxGeometry>
                </mxCell>
                <mxCell id="o_4lC3tYzleQxMTvq1z8-52" value="$$n_{0111}$$" style="shape=partialRectangle;html=1;whiteSpace=wrap;connectable=0;strokeColor=inherit;overflow=hidden;fillColor=none;top=0;left=0;bottom=0;right=0;pointerEvents=1;fontSize=16;" parent="o_4lC3tYzleQxMTvq1z8-49" vertex="1">
                    <mxGeometry x="220" width="110" height="74" as="geometry">
                        <mxRectangle width="110" height="74" as="alternateBounds"/>
                    </mxGeometry>
                </mxCell>
                <mxCell id="o_4lC3tYzleQxMTvq1z8-53" value="" style="shape=table;startSize=0;container=1;collapsible=0;childLayout=tableLayout;fontSize=16;points=[[0,0,0,0,0],[0,0.25,0,0,0],[0,0.5,0,0,0],[0,0.75,0,0,0],[0,1,0,0,0],[0.25,0,0,0,0],[0.25,1,0,0,0],[0.5,0,0,0,0],[0.5,1,0,0,0],[0.75,0,0,0,0],[0.75,1,0,0,0],[1,0,0,0,0],[1,0.25,0,0,0],[1,0.5,0,0,0],[1,0.75,0,0,0],[1,1,0,0,0]];fillColor=none;gradientColor=none;perimeterSpacing=1;rounded=1;swimlaneHead=0;swimlaneBody=0;top=0;bottom=0;left=0;right=0;swimlaneFillColor=none;" parent="1" vertex="1">
                    <mxGeometry x="546.25" y="380" width="330" height="220" as="geometry"/>
                </mxCell>
                <mxCell id="o_4lC3tYzleQxMTvq1z8-54" value="" style="shape=tableRow;horizontal=0;startSize=0;swimlaneHead=0;swimlaneBody=0;strokeColor=inherit;top=0;left=0;bottom=0;right=0;collapsible=0;dropTarget=0;fillColor=none;points=[[0,0.5],[1,0.5]];portConstraint=eastwest;fontSize=16;" parent="o_4lC3tYzleQxMTvq1z8-53" vertex="1">
                    <mxGeometry width="330" height="74" as="geometry"/>
                </mxCell>
                <mxCell id="o_4lC3tYzleQxMTvq1z8-55" value="" style="shape=partialRectangle;html=1;whiteSpace=wrap;connectable=0;strokeColor=inherit;overflow=hidden;fillColor=none;top=0;left=0;bottom=0;right=0;pointerEvents=1;fontSize=16;" parent="o_4lC3tYzleQxMTvq1z8-54" vertex="1">
                    <mxGeometry width="110" height="74" as="geometry">
                        <mxRectangle width="110" height="74" as="alternateBounds"/>
                    </mxGeometry>
                </mxCell>
                <mxCell id="o_4lC3tYzleQxMTvq1z8-56" value="$$\text{Disease}$$" style="shape=partialRectangle;html=1;whiteSpace=wrap;connectable=0;strokeColor=inherit;overflow=hidden;fillColor=none;top=0;left=0;bottom=0;right=0;pointerEvents=1;fontSize=16;" parent="o_4lC3tYzleQxMTvq1z8-54" vertex="1">
                    <mxGeometry x="110" width="110" height="74" as="geometry">
                        <mxRectangle width="110" height="74" as="alternateBounds"/>
                    </mxGeometry>
                </mxCell>
                <mxCell id="o_4lC3tYzleQxMTvq1z8-57" value="$$\text{No Disease}$$" style="shape=partialRectangle;html=1;whiteSpace=wrap;connectable=0;strokeColor=inherit;overflow=hidden;fillColor=none;top=0;left=0;bottom=0;right=0;pointerEvents=1;fontSize=16;" parent="o_4lC3tYzleQxMTvq1z8-54" vertex="1">
                    <mxGeometry x="220" width="110" height="74" as="geometry">
                        <mxRectangle width="110" height="74" as="alternateBounds"/>
                    </mxGeometry>
                </mxCell>
                <mxCell id="o_4lC3tYzleQxMTvq1z8-58" value="" style="shape=tableRow;horizontal=0;startSize=0;swimlaneHead=0;swimlaneBody=0;strokeColor=inherit;top=0;left=0;bottom=0;right=0;collapsible=0;dropTarget=0;fillColor=none;points=[[0,0.5],[1,0.5]];portConstraint=eastwest;fontSize=16;" parent="o_4lC3tYzleQxMTvq1z8-53" vertex="1">
                    <mxGeometry y="74" width="330" height="72" as="geometry"/>
                </mxCell>
                <mxCell id="o_4lC3tYzleQxMTvq1z8-59" value="$$\text{Obesity}=0$$" style="shape=partialRectangle;html=1;whiteSpace=wrap;connectable=0;strokeColor=inherit;overflow=hidden;fillColor=none;top=0;left=0;bottom=0;right=0;pointerEvents=1;fontSize=16;" parent="o_4lC3tYzleQxMTvq1z8-58" vertex="1">
                    <mxGeometry width="110" height="72" as="geometry">
                        <mxRectangle width="110" height="72" as="alternateBounds"/>
                    </mxGeometry>
                </mxCell>
                <mxCell id="o_4lC3tYzleQxMTvq1z8-60" value="$$n_{1100}$$" style="shape=partialRectangle;html=1;whiteSpace=wrap;connectable=0;strokeColor=inherit;overflow=hidden;fillColor=none;top=0;left=0;bottom=0;right=0;pointerEvents=1;fontSize=16;" parent="o_4lC3tYzleQxMTvq1z8-58" vertex="1">
                    <mxGeometry x="110" width="110" height="72" as="geometry">
                        <mxRectangle width="110" height="72" as="alternateBounds"/>
                    </mxGeometry>
                </mxCell>
                <mxCell id="o_4lC3tYzleQxMTvq1z8-61" value="$$n_{1101}$$" style="shape=partialRectangle;html=1;whiteSpace=wrap;connectable=0;strokeColor=inherit;overflow=hidden;fillColor=none;top=0;left=0;bottom=0;right=0;pointerEvents=1;fontSize=16;" parent="o_4lC3tYzleQxMTvq1z8-58" vertex="1">
                    <mxGeometry x="220" width="110" height="72" as="geometry">
                        <mxRectangle width="110" height="72" as="alternateBounds"/>
                    </mxGeometry>
                </mxCell>
                <mxCell id="o_4lC3tYzleQxMTvq1z8-62" value="" style="shape=tableRow;horizontal=0;startSize=0;swimlaneHead=0;swimlaneBody=0;strokeColor=inherit;top=0;left=0;bottom=0;right=0;collapsible=0;dropTarget=0;fillColor=none;points=[[0,0.5],[1,0.5]];portConstraint=eastwest;fontSize=16;" parent="o_4lC3tYzleQxMTvq1z8-53" vertex="1">
                    <mxGeometry y="146" width="330" height="74" as="geometry"/>
                </mxCell>
                <mxCell id="o_4lC3tYzleQxMTvq1z8-63" value="$$\text{Obesity}=1$$" style="shape=partialRectangle;html=1;whiteSpace=wrap;connectable=0;strokeColor=inherit;overflow=hidden;fillColor=none;top=0;left=0;bottom=0;right=0;pointerEvents=1;fontSize=16;" parent="o_4lC3tYzleQxMTvq1z8-62" vertex="1">
                    <mxGeometry width="110" height="74" as="geometry">
                        <mxRectangle width="110" height="74" as="alternateBounds"/>
                    </mxGeometry>
                </mxCell>
                <mxCell id="o_4lC3tYzleQxMTvq1z8-64" value="$$n_{1110}$$" style="shape=partialRectangle;html=1;whiteSpace=wrap;connectable=0;strokeColor=inherit;overflow=hidden;fillColor=none;top=0;left=0;bottom=0;right=0;pointerEvents=1;fontSize=16;" parent="o_4lC3tYzleQxMTvq1z8-62" vertex="1">
                    <mxGeometry x="110" width="110" height="74" as="geometry">
                        <mxRectangle width="110" height="74" as="alternateBounds"/>
                    </mxGeometry>
                </mxCell>
                <mxCell id="o_4lC3tYzleQxMTvq1z8-65" value="$$n_{1111}$$" style="shape=partialRectangle;html=1;whiteSpace=wrap;connectable=0;strokeColor=inherit;overflow=hidden;fillColor=none;top=0;left=0;bottom=0;right=0;pointerEvents=1;fontSize=16;" parent="o_4lC3tYzleQxMTvq1z8-62" vertex="1">
                    <mxGeometry x="220" width="110" height="74" as="geometry">
                        <mxRectangle width="110" height="74" as="alternateBounds"/>
                    </mxGeometry>
                </mxCell>
                <mxCell id="o_4lC3tYzleQxMTvq1z8-69" value="&lt;font style=&quot;font-size: 20px;&quot;&gt;$$\text{Male}$$&lt;/font&gt;" style="text;html=1;align=center;verticalAlign=middle;whiteSpace=wrap;rounded=0;rotation=-90;" parent="1" vertex="1">
                    <mxGeometry x="-23.75" y="160" width="160" height="100" as="geometry"/>
                </mxCell>
                <mxCell id="o_4lC3tYzleQxMTvq1z8-70" value="&lt;font style=&quot;font-size: 20px;&quot;&gt;$$\text{Female}$$&lt;/font&gt;" style="text;html=1;align=center;verticalAlign=middle;whiteSpace=wrap;rounded=0;rotation=-90;" parent="1" vertex="1">
                    <mxGeometry x="-23.75" y="440" width="160" height="100" as="geometry"/>
                </mxCell>
                <mxCell id="o_4lC3tYzleQxMTvq1z8-72" value="&lt;font style=&quot;font-size: 20px;&quot;&gt;$$\text{Age}&amp;gt;50$$&lt;/font&gt;" style="text;html=1;align=center;verticalAlign=middle;whiteSpace=wrap;rounded=0;" parent="1" vertex="1">
                    <mxGeometry x="201.25" y="20" width="205" height="30" as="geometry"/>
                </mxCell>
                <mxCell id="o_4lC3tYzleQxMTvq1z8-75" value="&lt;font style=&quot;font-size: 20px;&quot;&gt;$$\text{Age}\leq50$$&lt;/font&gt;" style="text;html=1;align=center;verticalAlign=middle;whiteSpace=wrap;rounded=0;" parent="1" vertex="1">
                    <mxGeometry x="613.75" y="20" width="205" height="30" as="geometry"/>
                </mxCell>
            </root>
        </mxGraphModel>
    </diagram>
</mxfile>